<svg xmlns="http://www.w3.org/2000/svg" xmlns:xlink="http://www.w3.org/1999/xlink" viewBox="0 0 730.008 727.294"><defs><linearGradient id="a" x1="3.875" y1="11.961" x2="3.045" y2="13.488" gradientUnits="objectBoundingBox"><stop offset="0" stop-color="#e1473d"/><stop offset="1" stop-color="#e9605a"/></linearGradient><linearGradient id="b" x1="-21.782" y1="1.469" x2="-20.808" y2="-1.324" gradientUnits="objectBoundingBox"><stop offset="0" stop-color="#febbba"/><stop offset="1" stop-color="#ff928e"/></linearGradient><linearGradient id="c" x1="-10.513" y1="1.539" x2="-10.034" y2="-1.33" xlink:href="#b"/><linearGradient id="d" x1="-31.457" y1="1.418" x2="-31.196" y2="0.373" xlink:href="#b"/><linearGradient id="e" x1="-41.853" y1="0.5" x2="-40.853" y2="0.5" gradientUnits="objectBoundingBox"><stop offset="0" stop-color="#4f52ff"/><stop offset="1" stop-color="#4042e2"/></linearGradient><linearGradient id="f" x1="-148.58" y1="0.5" x2="-147.58" y2="0.5" xlink:href="#b"/><linearGradient id="g" x1="-124.325" y1="0.5" x2="-123.325" y2="0.5" xlink:href="#b"/><linearGradient id="h" x1="0" y1="0.5" x2="1" y2="0.5" xlink:href="#e"/><linearGradient id="i" y1="0.5" x2="1" y2="0.5" gradientUnits="objectBoundingBox"><stop offset="0" stop-color="#53d8ff"/><stop offset="1" stop-color="#3840f7"/></linearGradient><linearGradient id="j" x1="-77.879" y1="1.478" x2="-77.607" y2="0.434" xlink:href="#b"/><linearGradient id="k" x1="0.145" y1="1.002" x2="1.677" y2="-0.609" gradientUnits="objectBoundingBox"><stop offset="0" stop-color="#ff928e"/><stop offset="1" stop-color="#fe7062"/></linearGradient><linearGradient id="l" x1="-30.969" y1="-5.789" x2="-29.836" y2="-5.789" xlink:href="#b"/><linearGradient id="m" x1="-22.71" y1="2.276" x2="-21.184" y2="0.014" xlink:href="#b"/><linearGradient id="n" x1="-55.472" y1="0.603" x2="-56.584" y2="1.359" xlink:href="#b"/><linearGradient id="o" x1="-226.107" y1="-0.685" x2="-230.657" y2="1.784" xlink:href="#b"/><linearGradient id="p" x1="-0.184" y1="1.294" x2="0.486" y2="0.516" xlink:href="#a"/><linearGradient id="q" x1="0.878" y1="-0.071" x2="-1.173" y2="3.028" xlink:href="#k"/><linearGradient id="r" x1="1.304" y1="-0.302" x2="-1.589" y2="2.559" xlink:href="#k"/></defs><g transform="translate(4298.975 -449.613)"><g transform="translate(-4298.975 449.613)"><path d="M1173.243,942.359c-69.337,163.26-254.034,254.719-414.2,230.049-26.063-4.015-97.515-15.973-160.775-72.389-121.781-108.6-147.825-323.654-49.588-475.2,71.5-110.3,199.67-172.829,321.456-169.7,26.233.673,126.768,4.826,215.121,77.68a331.355,331.355,0,0,1,67.4,76.469C1213.224,703.987,1218.431,835.96,1173.243,942.359Z" transform="translate(-481.453 -455)" fill="#ebebf8"/><g transform="translate(34.122 0.275)"><path d="M599.655,459.7c-.683-2.908,3.408-4.842,5.914-2.81,25.441,20.63,86.569,82.409,71.335,190.372-19.114,135.455,13.563,184.882,54.238,215.031,0,0-55.86-14.178-91-64.332C553.849,674.823,611.8,511.417,599.655,459.7Z" transform="translate(-591.743 -456.051)" fill="#292929"/><path d="M695.826,628.871c3.183,15.079,6.019,30.205,8.211,45.4q3.426,22.771,5.232,45.674c1.13,15.262,1.928,30.54,1.973,45.824.125,15.284-.51,30.554-1.21,45.885-.6,15.325-1.306,30.76-.185,46.3,1.1,15.513,4.369,31.162,10.848,45.831,1.62,3.656,3.323,7.3,5.258,10.822,1.86,3.554,3.9,7.038,6.018,10.489A165.566,165.566,0,0,0,746.4,944.952a182.051,182.051,0,0,0,38,33.255,3.8,3.8,0,0,0,4.811-.547,2.7,2.7,0,0,0-.553-4.1l-.01-.007c-3.4-2.387-6.761-4.8-9.988-7.343-1.637-1.248-3.207-2.555-4.8-3.836-1.539-1.332-3.139-2.613-4.629-3.985a165.134,165.134,0,0,1-41.462-56.883,133.944,133.944,0,0,1-7.194-21.6,147.468,147.468,0,0,1-3.47-22.371c-1.223-15.088-.671-30.371-.2-45.7.45-15.332.78-30.741.376-46.138q-.267-11.547-1.014-23.077c-.223-3.844-.533-7.683-.834-11.522q-.516-5.755-1.117-11.5-2.477-22.984-6.591-45.785c-2.832-15.179-6.13-30.288-10.1-45.262a.933.933,0,0,0-1.1-.6A.807.807,0,0,0,695.826,628.871Z" transform="translate(-668.553 -582.913)" fill="#f9f9ff"/></g><g transform="translate(67.354 11.91)"><path d="M745.64,794.97a6.4,6.4,0,0,1-10.482-1.785c-10.355-22.859-33.785-90.138,4.912-167.646,32.678-65.452,44.178-104.049,48.184-121.932a4.016,4.016,0,0,1,7.594-.738C813.106,541.985,858.675,675.041,745.64,794.97Z" transform="translate(-718.617 -500.47)" fill="#ebe3e3"/><path d="M794.264,1029.186a1.779,1.779,0,0,1-2.09-1.775c.017-1.112,2.18-112.223,43.506-205.282a1.776,1.776,0,1,1,3.246,1.441c-41.025,92.383-43.184,202.791-43.2,203.9A1.776,1.776,0,0,1,794.264,1029.186Z" transform="translate(-772.907 -737.098)" fill="#292929"/></g><g transform="translate(563.157 390.29)"><path d="M2611.624,2146.253a1.055,1.055,0,0,1,1.333-1.439c3.3,1.279,9.428,3,13.995.411.23-.13.453-.25.673-.363a2.444,2.444,0,0,0-1.951-1.081c-2.724-.169-3.609-4.2-3.609-4.2a6.951,6.951,0,0,0,4.942.862,6.685,6.685,0,0,1,6.887,3.353c6.54,8.128,14.918,19.243,31.817,12.925s7.094-40.3,7.094-40.3l20.6,28.609s-.113,20.342-25.113,25.439-37.256-19.8-37.256-19.8S2617.649,2158.8,2611.624,2146.253Z" transform="translate(-2611.516 -2071.541)" fill="url(#a)"/><path d="M2885.938,1945.068s-1.47,2.807,7.672,7.411c5.1,2.567,15.039,6.406,16.158,17.092a12.236,12.236,0,0,0,10.035,10.947c13.617,2.351,34.526,9.839,37.445,33.611,2.229,18.145-7.126,24.833-16.853,27.025a13.715,13.715,0,0,0-10.7,15.643c1.25,6.912-.958,14.833-13.006,20.9-27,13.6-52.8-34.427-52.8-34.427l-3.9-83.082Z" transform="translate(-2794.907 -1945.068)" fill="#343333"/><path d="M3175.664,3172.792l.926,9.032a3.723,3.723,0,0,0,3.2,3.318,57.6,57.6,0,0,0,12.056.417,3.188,3.188,0,0,0,2.755-4.083c-1.04-3.5-2.964-8.76-5.823-11.888l-10-.189A3.08,3.08,0,0,0,3175.664,3172.792Z" transform="translate(-3027.886 -2848.711)" fill="#a41a2b"/><path d="M2857.066,2773.71l-1.875,9.892s4.569,57.336,5.142,80.247a17.943,17.943,0,0,1-2.847,10.145l-10.125,15.768,25.246-14.262.555-3.038-3.981-5.7,6.564-64.01a19.674,19.674,0,0,0-2.033-10.922l-4.981-9.8Z" transform="translate(-2785.587 -2556.666)" fill="url(#b)"/><path d="M2835.092,3160.032l7.968.151a4.8,4.8,0,0,0,3.843-1.8c2.545-3.181,7.81-9.38,10.274-9.5,3.317-.159,2.671,11.61,2.671,11.61l1.856.035,2.629-14.59a8.664,8.664,0,0,0-4.375-9.141h0s-.863,5.586-5.016,7.986-16.924,11.033-16.924,11.033a11.371,11.371,0,0,0-3.24.025A2.108,2.108,0,0,0,2835.092,3160.032Z" transform="translate(-2775.006 -2824.655)" fill="#a41a2b"/><path d="M3014.637,2782.958s31.914,63.411,36.906,77.845a137.724,137.724,0,0,1,6.657,27.562c.077,1.771,2.246,3.51,8.313,3.625,3.131.059,4.688-1.167,5.462-2.368a3.538,3.538,0,0,0,.2-3.423c-1.842-3.911-7.684-16.409-9.828-22.068-2.56-6.756-7.766-37.254-10.735-47.879s-6.337-22.155-19.94-32.973C3031.669,2783.28,3022.37,2773.821,3014.637,2782.958Z" transform="translate(-2909.049 -2560.554)" fill="url(#c)"/><path d="M2813.142,2185.68c-5.6-29.14,8.014-47.45,12.878-52.9a2.444,2.444,0,0,0-.2-3.449c-10.192-9.061-25.313-14.631-32.39-16.89a7.751,7.751,0,0,0-7.212,1.349c-6.5,5.208-20.164,17.574-18.2,28.019,1.357,7.233,13.191,40.7,15.418,46.97a2.433,2.433,0,0,0,1.417,1.462,33.31,33.31,0,0,0,27-1.879A2.479,2.479,0,0,0,2813.142,2185.68Z" transform="translate(-2726.884 -2068.331)" fill="#e5253b"/><path d="M2871.442,2418.16c-3.277-10.533-18.592-18.269-18.592-18.269-15.939,9.168-29.712,2.329-29.712,2.329s-3.341,11.853-1.4,22.964,14.094,82.512,14.094,82.512c21.183,4.71,54.051-3.316,54.051-3.316C2876.792,2480.078,2874.719,2428.693,2871.442,2418.16Z" transform="translate(-2766.228 -2280.76)" fill="#292929"/><path d="M2873.58,2010.292l6.354,31.312c.612,2.759-1.883,2.263-4.65,1.686-4.531-.943-10.359-2.819-12.251-6.395a3.365,3.365,0,0,1-.333-1.182l-2.574-21.678a3.885,3.885,0,0,1,2.351-4.039l5.8-2.443A3.885,3.885,0,0,1,2873.58,2010.292Z" transform="translate(-2794.988 -1990.96)" fill="url(#d)"/><path d="M3049.689,2091.278a2.578,2.578,0,0,0,1.275-.427c6.341-3.965,9.841-12.323,8.511-20.323a19.126,19.126,0,0,0-6.455-11.732,29.407,29.407,0,0,0-7.954-4.275c-4.575-1.829-9.295-3.454-14.029-4.829l-1.163-.335a43.156,43.156,0,0,1-8.2-2.959,13.611,13.611,0,0,1-6.688-6.936,20.388,20.388,0,0,1-.945-5.418,16.442,16.442,0,0,0-1.468-6.577.167.167,0,0,0-.223-.067.165.165,0,0,0-.066.224,16.2,16.2,0,0,1,1.429,6.447,20.64,20.64,0,0,0,.964,5.506,13.934,13.934,0,0,0,6.844,7.11,43.328,43.328,0,0,0,8.259,2.986q.582.166,1.163.334c4.722,1.373,9.431,2.993,14,4.819a29.076,29.076,0,0,1,7.866,4.223,18.786,18.786,0,0,1,6.339,11.532c1.309,7.874-2.129,16.095-8.36,19.989-.449.282-1.3.622-1.646.121a.164.164,0,1,0-.271.185A.934.934,0,0,0,3049.689,2091.278Z" transform="translate(-2907.299 -2005.821)" fill="#91b3fa"/><path d="M3158.474,2183.015a.164.164,0,0,0,.135-.071,19.629,19.629,0,0,0,3.843-10.895,12.378,12.378,0,0,0-4.872-10.233.165.165,0,1,0-.189.27,12.043,12.043,0,0,1,4.731,9.961,19.3,19.3,0,0,1-3.784,10.709.164.164,0,0,0,.041.229A.158.158,0,0,0,3158.474,2183.015Z" transform="translate(-3014.359 -2105.022)" fill="#91b3fa"/></g><g transform="translate(0 401.362)"><path d="M777.316,3167.7c-6.949.6-19.01,1.576-28.518,1.995-5.716.252-9.006-.308-10.9-1.067,0,.214.009.416.018.6a1.967,1.967,0,0,0,1.869,1.857,333.927,333.927,0,0,0,37.342.037,1.4,1.4,0,0,0,1.141-2.1A11.379,11.379,0,0,0,777.316,3167.7Z" transform="translate(-665.493 -2858.531)" fill="url(#e)"/><path d="M748.791,3130.155c9.508-.418,21.569-1.394,28.518-1.995-6.832-8.383-28.518-14.032-28.518-14.032h-6.125a25.688,25.688,0,0,0-4.776,14.96C739.785,3129.847,743.075,3130.406,748.791,3130.155Z" transform="translate(-665.486 -2818.989)" fill="#e5253b"/><path d="M752.194,3075.953l.573,11.342a2.59,2.59,0,0,0,2.212,2.436,10.073,10.073,0,0,0,4.6-.381,3.065,3.065,0,0,0,2.06-2.356l1.981-11.041Z" transform="translate(-676.046 -2790.813)" fill="url(#f)"/><g transform="translate(0 288.632)"><path d="M466.534,3204.326a5.979,5.979,0,0,1-4.949-4.73l-.011.058a5.392,5.392,0,0,0,2.639,5.771,13.74,13.74,0,0,0,7.307,1.478,6.756,6.756,0,0,0,5.479-3.266l.017-.029C474.746,3205.061,471.559,3205.232,466.534,3204.326Z" transform="translate(-461.471 -3170.704)" fill="#e5253b"/><path d="M481.061,3089.291H476.01c-7.694-.2-12.525,20.769-14.107,28.891a5.979,5.979,0,0,0,4.949,4.73c5.026.906,8.213.735,10.483-.717,4.157-7.069,6.217-17.423,7.208-23.465C485.67,3091.857,481.061,3089.291,481.061,3089.291Z" transform="translate(-461.79 -3089.289)" fill="#e5253b"/></g><path d="M510.079,3049.1l-2.8,11.156a3.027,3.027,0,0,0,1.575,3.431,10.749,10.749,0,0,0,5.808,1.407,2.531,2.531,0,0,0,2.063-1.687l4.118-11.737Z" transform="translate(-495.21 -2770.996)" fill="url(#g)"/><path d="M610.733,2479.251s-25.065,156.676-24.652,157.537a20.849,20.849,0,0,1-14.47.4s2.267-83.754,7.578-115.868c0,0-42.777,74.86-56.361,112.162a33.96,33.96,0,0,1-12.95-4.7s46.059-134.745,58.347-152.692Z" transform="translate(-497.199 -2348.069)" fill="#292929"/><path d="M777.635,2595.788l-.753-.472,9.468-15.122,7.081-1.425.175.871-6.707,1.349Z" transform="translate(-694.268 -2423.856)" fill="url(#h)"/><path d="M702.939,2071.381a19.508,19.508,0,0,0-5.25-1.036c-9.779-.573-35.61,3.286-63.3,7.953-9.766,1.646-11.18,8.684-11.861,14.508-1.54,13.166,6.625,16.472,17.845,18.087,6.756,18.242,9.925,44.858,10.587,56.638a25.314,25.314,0,0,1-1.984,11.329l-.166.391a1.341,1.341,0,0,0,.942,1.831c18.251,4.1,37.234,2.986,42.9,2.517a2.34,2.34,0,0,0,2.086-1.787c8.875-37.4,8.9-62.9,6.722-79.03C735.866,2122.634,721.309,2077.746,702.939,2071.381Z" transform="translate(-580.203 -2048.561)" fill="#a41a2b"/><path d="M904.3,2127.833c-2.4-16.176-5.163-20.977-5.771-21.377a.359.359,0,0,0,.5-.351l-.812.18a.508.508,0,0,1,.144-.514l.482-.08c.825.3,3.747,5,6.275,22.021Z" transform="translate(-783.815 -2074.69)" fill="url(#i)"/><path d="M742.605,1987.336s-1.847,19.522-3.472,25.3a1.974,1.974,0,0,0,.93,2.255c2.759,1.576,9.376,4.148,18.428-.288a4.106,4.106,0,0,0,2.28-3.865l-.8-18.865Z" transform="translate(-666.351 -1987.336)" fill="url(#j)"/></g><g transform="translate(79.838 63.311)"><g transform="translate(0 0.293)"><path d="M1041.985,1149.859c-14.2-3.126-31.955.258-48.2,4.6-18.415,1.942-25-28.207-17.51-47.125,4.1-10.345,14.074-15.049,22.953-11.287,23.541,9.975,33.786,6.942,42.324,4.912,6.4-1.522,9.346-11.4,9.136-19.375l-4.2-159.627c-.172-6.521,3.27-12.485,8.426-14.151,13.148-4.249,27.42,4.2,44.144,10.935a23.069,23.069,0,0,0,20.4-1.216c24.61-14.16,18.126-63.279-11.691-57.669-16.888,4.945-35.468,8.335-52.507,4.927-5.24-1.048-9.114-6.541-9.208-13.035l-2.146-148.118a53.057,53.057,0,0,0-15.695,4.641L803.027,815.227a53.065,53.065,0,0,0-30.219,44.466c-21.122,326.5,188.228,445.469,256.856,475.521a53.175,53.175,0,0,0,23.148,4.424l-1.715-176.251C1051.1,1156.792,1047.291,1151.027,1041.985,1149.859Z" transform="translate(-769.999 -702.116)" fill="#e5253b"/><path d="M1047.311,1336.716a54.876,54.876,0,0,1-21.9-4.566c-35.84-15.694-104.623-53.061-162.6-126.989-32.584-41.55-57.288-89.172-73.425-141.542-19.251-62.478-26.528-132.559-21.628-208.3a54.417,54.417,0,0,1,30.977-45.583l225.189-106.95a54.315,54.315,0,0,1,16.088-4.758l1.488-.2,2.168,149.619c.086,5.881,3.508,10.823,8.137,11.749,14.243,2.847,30.727,1.291,51.872-4.9l.128-.03c11.827-2.223,21.562,3.7,26.051,15.847,5.356,14.494,1.737,35.546-13.451,44.284a24.248,24.248,0,0,1-21.563,1.3c-3.121-1.256-6.161-2.573-9.1-3.848-12.828-5.56-23.905-10.365-34.136-7.055-4.506,1.455-7.661,6.859-7.5,12.849l4.2,159.627c.238,9.033-3.176,19.046-10.16,20.705l-.908.218c-8.522,2.048-19.13,4.6-42.243-5.2a14.546,14.546,0,0,0-11.383-.03,18.512,18.512,0,0,0-9.812,10.581c-5,12.623-3.452,30.283,3.446,39.366,3.374,4.445,7.607,6.451,12.585,5.954,14.655-3.915,33.411-7.962,48.727-4.591h0c5.886,1.3,10.157,7.531,10.157,14.827l1.728,177.538-1.3.044Q1048.225,1336.716,1047.311,1336.716Zm-8.429-635.823a51.588,51.588,0,0,0-13.814,4.3L799.879,812.146A51.75,51.75,0,0,0,770.418,855.5c-4.879,75.413,2.36,145.172,21.516,207.34,16.04,52.057,40.593,99.389,72.975,140.682,57.616,73.469,125.96,110.6,161.571,126.193a52.713,52.713,0,0,0,21.269,4.34l-1.7-174.935c0-6.068-3.393-11.21-8.066-12.239h0c-14.959-3.289-34.312,1.044-47.57,4.591l-.2.038c-5.928.624-11.143-1.791-15.087-6.983-7.523-9.907-9.192-28.337-3.8-41.956a21.142,21.142,0,0,1,11.26-12.058,17.19,17.19,0,0,1,13.451.034c22.306,9.451,32.439,7.017,40.583,5.061l.914-.219c5.342-1.269,8.32-10.172,8.114-18.045l-4.2-159.627c-.192-7.259,3.653-13.613,9.348-15.453,11.181-3.611,22.691,1.374,36.014,7.146,2.924,1.268,5.948,2.578,9.036,3.821a21.641,21.641,0,0,0,19.241-1.135c10.888-6.264,18.679-23.741,12.28-41.052-5.743-15.539-17.942-15.1-23-14.165-21.542,6.3-38.408,7.87-53.078,4.936-5.853-1.17-10.175-7.194-10.279-14.322Z" transform="translate(-766.279 -697.832)" fill="#91b3fa"/></g><g transform="translate(201.88)"><path d="M1898.193,858.344a53.064,53.064,0,0,0-30.219-44.466l-225.189-106.95a53.1,53.1,0,0,0-29.885-4.641l2.146,148.118c.094,6.494,3.969,11.987,9.208,13.035,17.039,3.408,35.619.017,52.507-4.927,29.817-5.61,36.3,43.509,11.691,57.669a23.069,23.069,0,0,1-20.4,1.216c-16.724-6.731-31-15.184-44.144-10.935-5.156,1.666-8.6,7.63-8.426,14.151l4.2,159.627c.21,7.976-2.732,17.853-9.136,19.375-8.537,2.03-18.783,5.063-42.324-4.912-8.879-3.762-18.858.942-22.953,11.287-7.49,18.918-.906,49.067,17.51,47.124,16.245-4.346,33.995-7.73,48.2-4.6,5.306,1.168,9.112,6.932,9.112,13.527l1.715,176.252a53.184,53.184,0,0,0,19.537-4.424C1709.965,1303.813,1919.316,1184.848,1898.193,858.344Z" transform="translate(-1540.869 -700.473)" fill="#a41a2b"/><path d="M1616.638,1335.906l-1.728-177.616c0-6.068-3.393-11.21-8.066-12.239-14.957-3.288-34.312,1.044-47.57,4.591l-.2.038c-5.928.624-11.143-1.79-15.087-6.983-7.523-9.907-9.192-28.337-3.8-41.956a21.14,21.14,0,0,1,11.26-12.058,17.2,17.2,0,0,1,13.45.034c22.306,9.451,32.44,7.017,40.583,5.061l.914-.219c5.343-1.269,8.32-10.172,8.114-18.045l-4.2-159.627c-.191-7.259,3.654-13.613,9.348-15.453,11.181-3.611,22.69,1.374,36.014,7.146,2.924,1.268,5.948,2.579,9.036,3.821a21.641,21.641,0,0,0,19.241-1.135c10.887-6.264,18.678-23.741,12.28-41.052-5.743-15.538-17.946-15.1-23-14.165-21.544,6.3-38.411,7.87-53.079,4.936-5.853-1.17-10.175-7.194-10.279-14.322l-2.163-149.3,1.171-.158a54.319,54.319,0,0,1,30.634,4.758L1864.7,808.915a54.416,54.416,0,0,1,30.977,45.583c4.9,75.737-2.377,145.818-21.628,208.3-16.136,52.37-40.84,99.991-73.424,141.542-57.976,73.927-126.758,111.294-162.6,126.989a54.294,54.294,0,0,1-20.025,4.535Zm-21.844-193.715a58.883,58.883,0,0,1,12.622,1.258c5.885,1.3,10.157,7.531,10.157,14.827l1.7,174.857a51.588,51.588,0,0,0,17.684-4.249c35.611-15.594,103.955-52.724,161.57-126.193,32.382-41.293,56.935-88.625,72.975-140.682,19.156-62.168,26.395-131.927,21.515-207.34a51.752,51.752,0,0,0-29.461-43.35L1638.37,704.37a51.654,51.654,0,0,0-27.965-4.668l2.129,146.923c.086,5.881,3.508,10.823,8.137,11.748,14.243,2.847,30.727,1.291,51.872-4.9l.128-.03c11.827-2.223,21.563,3.7,26.052,15.847,5.356,14.494,1.737,35.546-13.451,44.284a24.248,24.248,0,0,1-21.563,1.3c-3.121-1.256-6.161-2.573-9.1-3.848-12.828-5.561-23.905-10.365-34.136-7.055-4.506,1.455-7.661,6.859-7.5,12.849l4.2,159.627c.238,9.033-3.176,19.046-10.16,20.705l-.908.218c-8.522,2.048-19.13,4.6-42.243-5.2a14.546,14.546,0,0,0-11.383-.03,18.511,18.511,0,0,0-9.812,10.581c-5,12.623-3.452,30.283,3.446,39.366,3.374,4.445,7.61,6.458,12.585,5.954C1569.5,1145.151,1582.546,1142.191,1594.794,1142.191Z" transform="translate(-1537.024 -696.714)" fill="#91b3fa"/></g><path d="M1575.3,807.549a1.332,1.332,0,0,1-.572-2.534l53.209-25.27a1.331,1.331,0,1,1,1.143,2.405l-53.209,25.27A1.328,1.328,0,0,1,1575.3,807.549Z" transform="translate(-1362.414 -757.901)" fill="#91b3fa"/><path d="M838.021,1082.409a1.332,1.332,0,0,1-1.33-1.287c-.712-21.177-.338-43.255,1.109-65.621a36.034,36.034,0,0,1,20.526-30.177l151.487-71.946a1.331,1.331,0,0,1,1.143,2.405L859.469,987.729a33.37,33.37,0,0,0-19.011,27.944c-1.442,22.28-1.814,44.269-1.105,65.359a1.331,1.331,0,0,1-1.286,1.376Z" transform="translate(-817.99 -856.531)" fill="#91b3fa"/></g><g transform="translate(585.062 452.234)"><path d="M2799.724,2181.711s5.005,22.667-24.152,46.3c-13.927,11.289-42.514,10.055-44.709-4.368l5.554-5.062s20.89,6.192,27.318-.057,13.79-20.6,13.79-20.6S2792.042,2179.718,2799.724,2181.711Z" transform="translate(-2721.508 -2181.559)" fill="url(#k)"/><path d="M2704.972,2276.8s7.567-6.346,8.826-9.646,2.385-7.906-3.088-10.726a88.988,88.988,0,0,0-12.767-5.007s-2.337,3.786,2.233,5.372l-3.622.088s-1.774,3.1,2.493,3.888l-3.889.789a3.106,3.106,0,0,0,3.043,3.537C2701.622,2265.3,2697.728,2272.91,2704.972,2276.8Z" transform="translate(-2695.146 -2233.126)" fill="url(#l)"/></g><g transform="translate(616.979 369.021)"><path d="M2829.011,1906.46s-7.485,4.863-10.9,17.543,1.659,17.347,6.954,17.167,13-1.671,19.814-10.685S2838.81,1900.53,2829.011,1906.46Z" transform="translate(-2817 -1894.535)" fill="url(#m)"/><path d="M2846.9,1894.55s3.052-18.2-12.156-15.7l-3.125,3.133s-7.261-8.495,1.068-14.655,19.691-4.328,25.777,7.288,8.221,19.739,2.8,26.783-9.275.842-9.275.842,5.922-7.319,2.717-10.524c-2.354-2.354-6.771,3.152-6.771,3.152Z" transform="translate(-2825.623 -1863.866)" fill="#343333"/></g><g transform="translate(42.322 435.209)"><path d="M678.127,2177.433a14.943,14.943,0,0,1-7.731-3.85c-8.7-8.437-17.631-29.473-17.631-29.473s-13.27-32.2-26.849-26.976c0,0-14.563,25.333,22,64,3.2,3.384,14.468,10.523,19.158,12.193A49.133,49.133,0,0,0,678.127,2177.433Z" transform="translate(-623.052 -2116.561)" fill="#e5253b"/><path d="M837.008,2350.431c-8.719,1.587-23.677,3.609-37.2-2.79-.934,4.169-2.257,7-10.178,16.1a80.048,80.048,0,0,0,52.767-6.272Z" transform="translate(-745.997 -2287.115)" fill="#e5253b"/><path d="M971.08,2331.776a2.886,2.886,0,0,1-4.131.264c-2.031-1.845-5.154-4.892-5.879-6.786-1.1-2.862-2.079-6.857,2.667-9.31a77.2,77.2,0,0,1,11.071-4.36s2.032,3.283-1.931,4.664l3.143.072s1.543,2.69-2.159,3.376l3.375.68a2.7,2.7,0,0,1-2.636,3.073C972.108,2323.6,974.1,2328.274,971.08,2331.776Z" transform="translate(-871.865 -2260.503)" fill="#e5253b"/></g><g transform="translate(59.741 361.579)"><path d="M753.687,1891.987s5.905,13.566,6.3,20.686,1.931,11.74-6.3,13.174-15.168-2.667-18.926-9.76c0,0-5.887-10.929-4.566-15.4S753.687,1891.987,753.687,1891.987Z" transform="translate(-719.407 -1877.179)" fill="url(#n)"/><path d="M707.719,1869.26l.469-.207a1.13,1.13,0,0,0,.552-1.552c-1.161-2.243-3.424-7.383-.5-8.582,3.768-1.545,18.694-4.589,21.914-9.885,3.095-5.09.353-11.66-3.769-13.529a.567.567,0,0,0-.742.242l-.344.65a.559.559,0,0,1-1.032-.106h0a.557.557,0,0,0-1.007-.144c-.99,1.584-3.662,4.153-10.809,5.472-10.157,1.874-16.872,5.984-17.039,13a.56.56,0,0,1-.866.462c-.75-.457-1.95-.671-3.554.677-2.789,2.345-1.648,8.429,4.467,13.434a.556.556,0,0,1-.026.9c-1.108.721-2.761,2.439,1.521,4.728,4.429,2.367,7.736,2.173,9.01,1.963a.557.557,0,0,0,.452-.673l-1.359-6.168a.559.559,0,0,1,.546-.68Z" transform="translate(-689.552 -1835.451)" fill="#343333"/><path d="M738.985,1950.715s-2.253-8.666-6.138-6.236,2.016,9.709,5.14,10.034Z" transform="translate(-720.561 -1915.605)" fill="url(#o)"/></g><g transform="translate(397.433 475.599)"><path d="M1999.514,2495.769a2.5,2.5,0,0,1-1.648-1.045c-5.64-8.132-46.509-71.666,12.346-126.664,55.872-52.21,80.771-62.5,85.049-94.09a3.72,3.72,0,0,1,7.071-1.028c11.506,25.33,28.814,84.133-35.844,120.3-71.324,39.893-67.066,86.26-64.1,99.494a2.514,2.514,0,0,1-2.872,3.036Z" transform="translate(-1978.81 -2270.761)" fill="#292929"/><path d="M2080.313,2945.8a3.623,3.623,0,0,1-3-3.132c-1.325-10.863-4.135-51.387,25.965-61.147,33.136-10.744,58.607,20.612,83.451-2.5a1.828,1.828,0,0,1,3.044,1.7c-2.543,12.406-13.013,40.992-55.672,45.448-45.66,4.769-50.943,9.82-50.231,16.319a3.051,3.051,0,0,1-3.554,3.314Z" transform="translate(-2048.793 -2726.057)" fill="#ebe3e3"/><path d="M2113.459,2403.726s-.222.881-.771,2.43a60.021,60.021,0,0,1-2.8,6.568,79.424,79.424,0,0,1-5.647,9.551,89.8,89.8,0,0,1-9.082,11.187,101,101,0,0,1-12.785,11.3c-2.411,1.839-5.026,3.534-7.707,5.244-1.369.808-2.729,1.667-4.151,2.448l-2.137,1.187-2.122,1.153a111.942,111.942,0,0,0-16.26,10.974,119.513,119.513,0,0,0-14.623,14.07,109.608,109.608,0,0,0-11.885,16.433,99.794,99.794,0,0,0-8.271,17.8,92.882,92.882,0,0,0-5.107,34.334,101.475,101.475,0,0,0,4.022,24.449c.83,2.89,1.579,5.135,2.114,6.658l.837,2.329.006.017a.707.707,0,0,1-1.319.507l-.951-2.318c-.608-1.517-1.468-3.757-2.44-6.655a103.253,103.253,0,0,1-4.927-24.845,91.9,91.9,0,0,1,.385-17.01,93.055,93.055,0,0,1,4.086-18.58,101.281,101.281,0,0,1,8.284-18.593,113.466,113.466,0,0,1,12.143-17.146,117.051,117.051,0,0,1,15.057-14.645,115.874,115.874,0,0,1,16.863-11.448l4.215-2.293c1.38-.744,2.7-1.563,4.029-2.332,2.6-1.624,5.127-3.258,7.487-4.982a109.056,109.056,0,0,0,12.632-10.552c1.81-1.8,3.522-3.549,5.045-5.31q2.328-2.6,4.229-5.086a89.991,89.991,0,0,0,6.078-8.888c1.533-2.568,2.592-4.671,3.276-6.116s.966-2.234.966-2.234a.647.647,0,0,1,1.236.375Z" transform="translate(-1999.783 -2368.297)" fill="#f9f9ff"/><path d="M2084.912,2960.23a2.068,2.068,0,0,0,.081-.415c.028-.271.006-.671.012-1.194,0-1.044.027-2.574.124-4.519a96.667,96.667,0,0,1,2.12-15.989,64.986,64.986,0,0,1,3.185-10.338,39.173,39.173,0,0,1,6.137-10.467,25.179,25.179,0,0,1,10.576-7.615,28.457,28.457,0,0,1,13.4-1.348c4.449.638,8.775,1.465,13.081,2.278,4.291.825,8.5,1.693,12.568,2.531s8,1.635,11.734,2.266a70.849,70.849,0,0,0,10.551,1.11,28.731,28.731,0,0,0,8.74-1.085,22.038,22.038,0,0,0,6.065-2.987,27.711,27.711,0,0,0,3.394-2.8l1.108-1.107.021-.021a.576.576,0,0,1,.821.807l-1.126,1.163a28.832,28.832,0,0,1-3.492,2.981,23.368,23.368,0,0,1-6.376,3.275,28.317,28.317,0,0,1-9.172,1.247,72.124,72.124,0,0,1-10.781-1.085c-3.777-.623-7.724-1.407-11.8-2.227s-8.278-1.672-12.559-2.476-8.661-1.584-12.981-2.228a26.89,26.89,0,0,0-12.678,1.129,23.721,23.721,0,0,0-10.045,7.087,38.537,38.537,0,0,0-6.047,10.051,63.848,63.848,0,0,0-3.274,10.105,95.721,95.721,0,0,0-2.328,15.794c-.124,1.928-.172,3.444-.188,4.478a11.146,11.146,0,0,0,.011,1.177,1.667,1.667,0,0,0,.094.4.527.527,0,1,1-.981.039Z" transform="translate(-2057.096 -2741.159)" fill="#292929"/></g><g transform="translate(185.072 215.884)"><g transform="translate(92.396 144.643)"><circle cx="35.404" cy="35.404" r="35.404" transform="translate(0 50.069) rotate(-45)" fill="url(#p)"/><circle cx="34.227" cy="34.227" r="34.227" transform="translate(1.665 50.069) rotate(-45)" fill="url(#q)"/><path d="M1599.2,1916.111a1.775,1.775,0,0,1-1.583-2.576,33.229,33.229,0,0,1,29.808-18.353,33.613,33.613,0,0,1,6.019.542,1.776,1.776,0,1,1-.638,3.494,30.044,30.044,0,0,0-5.381-.484,29.7,29.7,0,0,0-26.638,16.4A1.774,1.774,0,0,1,1599.2,1916.111Z" transform="translate(-1577.353 -1878.485)" fill="#fff" opacity="0.69"/><circle cx="28.969" cy="28.969" r="28.969" transform="translate(9.846 50.815) rotate(-45)" fill="#fff" opacity="0.78"/><g transform="translate(38.055 30.313)"><path d="M1676.006,1989.2v-3.151a25.705,25.705,0,0,1-8.843-1.917,1.824,1.824,0,0,1-1.008-2.154l.8-2.936a1.838,1.838,0,0,1,2.494-1.2,21.336,21.336,0,0,0,8.165,1.719c3.165,0,5.524-1.073,5.524-3.272,0-1.984-1.823-3.164-6.222-4.344-6.275-1.717-10.781-4.452-10.781-9.977,0-4.988,3.647-8.8,9.976-9.815V1949a1.836,1.836,0,0,1,1.836-1.836h1.852a1.836,1.836,0,0,1,1.836,1.836v2.83a23.446,23.446,0,0,1,7.009,1.259,1.827,1.827,0,0,1,1.142,2.206l-.736,2.715a1.831,1.831,0,0,1-2.417,1.237,19.117,19.117,0,0,0-6.875-1.248c-3.755,0-4.827,1.556-4.827,2.95,0,1.716,2.253,2.9,7.133,4.4,6.973,2.092,9.869,4.988,9.869,10.191,0,4.773-3.54,9.064-10.405,10.137v3.527a1.836,1.836,0,0,1-1.836,1.837h-1.852A1.836,1.836,0,0,1,1676.006,1989.2Z" transform="translate(-1666.089 -1947.162)" fill="url(#r)"/></g></g><g transform="translate(0 0)"><circle cx="61.632" cy="61.632" r="61.632" transform="translate(0 87.161) rotate(-45)" fill="url(#p)"/><circle cx="59.583" cy="59.583" r="59.583" transform="translate(2.898 87.161) rotate(-45)" fill="url(#q)"/><path d="M1308.234,1429.015a1.777,1.777,0,0,1-1.583-2.576,56.535,56.535,0,0,1,50.716-31.227,57.306,57.306,0,0,1,10.241.921,1.776,1.776,0,0,1-.636,3.495,53.714,53.714,0,0,0-9.6-.864,53,53,0,0,0-47.546,29.276A1.774,1.774,0,0,1,1308.234,1429.015Z" transform="translate(-1270.205 -1364.828)" fill="#fff" opacity="0.69"/><circle cx="50.43" cy="50.43" r="50.43" transform="translate(17.141 88.46) rotate(-45)" fill="#fff" opacity="0.78"/><g transform="translate(66.248 52.769)"><path d="M1438.234,1553.855v-5.487a44.745,44.745,0,0,1-15.395-3.337,3.174,3.174,0,0,1-1.754-3.75l1.394-5.11a3.2,3.2,0,0,1,4.342-2.093,37.149,37.149,0,0,0,14.214,2.993c5.509,0,9.617-1.868,9.617-5.7,0-3.455-3.174-5.508-10.831-7.562-10.924-2.988-18.768-7.75-18.768-17.367,0-8.684,6.349-15.313,17.367-17.087v-5.487a3.2,3.2,0,0,1,3.2-3.2h3.224a3.2,3.2,0,0,1,3.2,3.2v4.926a40.794,40.794,0,0,1,12.2,2.191,3.181,3.181,0,0,1,1.988,3.84l-1.282,4.726a3.188,3.188,0,0,1-4.209,2.153,33.287,33.287,0,0,0-11.968-2.173c-6.536,0-8.4,2.708-8.4,5.135,0,2.988,3.921,5.042,12.418,7.656,12.138,3.641,17.18,8.683,17.18,17.74,0,8.31-6.162,15.78-18.114,17.647v6.14a3.2,3.2,0,0,1-3.2,3.2h-3.224A3.2,3.2,0,0,1,1438.234,1553.855Z" transform="translate(-1420.971 -1480.674)" fill="url(#r)"/></g></g><g transform="translate(150.969 152.247)"><circle cx="63.419" cy="63.419" r="63.419" transform="translate(0 89.688) rotate(-45)" fill="url(#p)"/><circle cx="61.31" cy="61.31" r="61.31" transform="translate(2.982 89.688) rotate(-45)" fill="url(#q)"/><path d="M1888.815,2014.707a1.775,1.775,0,0,1-1.583-2.576,58.127,58.127,0,0,1,52.14-32.1,58.855,58.855,0,0,1,10.529.947,1.776,1.776,0,0,1-.636,3.494,55.32,55.32,0,0,0-9.892-.89,54.593,54.593,0,0,0-48.97,30.152A1.775,1.775,0,0,1,1888.815,2014.707Z" transform="translate(-1849.684 -1948.711)" fill="#fff" opacity="0.69"/><circle cx="51.892" cy="51.892" r="51.892" transform="translate(17.638 91.024) rotate(-45)" fill="#f9f9ff"/><g transform="translate(68.168 54.299)"><path d="M2022.44,2143.072v-5.646a46.034,46.034,0,0,1-15.841-3.434,3.266,3.266,0,0,1-1.8-3.858l1.434-5.259a3.291,3.291,0,0,1,4.468-2.154,38.222,38.222,0,0,0,14.626,3.079c5.668,0,9.9-1.922,9.9-5.861,0-3.554-3.267-5.668-11.145-7.781-11.241-3.075-19.312-7.975-19.312-17.871,0-8.936,6.534-15.757,17.871-17.582v-5.647a3.29,3.29,0,0,1,3.29-3.289h3.317a3.289,3.289,0,0,1,3.29,3.289v5.07a41.978,41.978,0,0,1,12.556,2.255,3.273,3.273,0,0,1,2.045,3.951l-1.319,4.864a3.28,3.28,0,0,1-4.33,2.215,34.25,34.25,0,0,0-12.315-2.236c-6.726,0-8.647,2.786-8.647,5.284,0,3.074,4.035,5.188,12.778,7.879,12.49,3.747,17.678,8.935,17.678,18.255,0,8.551-6.341,16.237-18.639,18.159v6.318a3.289,3.289,0,0,1-3.289,3.29h-3.318A3.29,3.29,0,0,1,2022.44,2143.072Z" transform="translate(-2004.677 -2067.77)" fill="url(#r)"/></g></g><g transform="translate(157.639 55.06)"><circle cx="46.467" cy="46.467" r="46.467" transform="translate(0 65.714) rotate(-45)" fill="url(#p)"/><circle cx="44.922" cy="44.922" r="44.922" transform="translate(2.185 65.714) rotate(-45)" fill="url(#q)"/><path d="M1874.346,1601.568a1.776,1.776,0,0,1-1.583-2.576,43.061,43.061,0,0,1,38.627-23.783,43.668,43.668,0,0,1,7.8.7,1.776,1.776,0,0,1-.637,3.494,40,40,0,0,0-7.162-.645,39.526,39.526,0,0,0-35.457,21.832A1.774,1.774,0,0,1,1874.346,1601.568Z" transform="translate(-1845.676 -1552.739)" fill="#fff" opacity="0.69"/><circle cx="38.02" cy="38.02" r="38.02" transform="translate(12.923 66.693) rotate(-45)" fill="#fff" opacity="0.78"/><g transform="translate(49.947 39.784)"><path d="M1973.591,1696.485v-4.137a33.735,33.735,0,0,1-11.607-2.516,2.393,2.393,0,0,1-1.322-2.827l1.051-3.853a2.412,2.412,0,0,1,3.274-1.578,28.006,28.006,0,0,0,10.716,2.256c4.153,0,7.251-1.408,7.251-4.295,0-2.6-2.393-4.153-8.166-5.7-8.236-2.253-14.15-5.843-14.15-13.094,0-6.547,4.787-11.545,13.094-12.882v-4.137a2.41,2.41,0,0,1,2.41-2.41h2.43a2.41,2.41,0,0,1,2.41,2.41v3.714a30.758,30.758,0,0,1,9.2,1.652,2.4,2.4,0,0,1,1.5,2.9l-.966,3.563a2.4,2.4,0,0,1-3.173,1.623,25.1,25.1,0,0,0-9.023-1.638c-4.928,0-6.336,2.041-6.336,3.872,0,2.253,2.956,3.8,9.363,5.772,9.151,2.746,12.953,6.547,12.953,13.375,0,6.265-4.646,11.9-13.657,13.3v4.629a2.41,2.41,0,0,1-2.41,2.41H1976A2.41,2.41,0,0,1,1973.591,1696.485Z" transform="translate(-1960.577 -1641.311)" fill="url(#r)"/></g></g></g></g></g></svg>